<svg preserveAspectRatio="none" width="100%" height="100%" overflow="visible" style="display: block;" viewBox="0 0 221.596 102.761" fill="none" xmlns="http://www.w3.org/2000/svg">
<g id="WOKV">
<g id="WOKV_2">
<path d="M27.775 36.786L21.678 81.74H21.496L16.4 36.786H0.0199999L11.122 101.76H29.686L35.328 58.08H35.51L41.152 101.76H59.716L70.818 36.786H54.438L49.888 81.74H49.706L43.063 36.786H27.775Z" fill="var(--fill-0, white)"/>
<path d="M90.4122 69.273C90.4122 64.905 90.4728 61.2953 90.5941 58.444C90.7155 55.532 90.9581 53.2267 91.3221 51.528C91.7468 49.8293 92.3232 48.6463 93.0512 47.979C93.8398 47.3117 94.8712 46.978 96.1452 46.978C97.4192 46.978 98.4202 47.3117 99.1482 47.979C99.9368 48.6463 100.513 49.8293 100.877 51.528C101.302 53.2267 101.575 55.532 101.696 58.444C101.817 61.2953 101.878 64.905 101.878 69.273C101.878 73.641 101.817 77.281 101.696 80.193C101.575 83.0443 101.302 85.3193 100.877 87.018C100.513 88.7167 99.9368 89.8997 99.1482 90.567C98.4202 91.2343 97.4192 91.568 96.1452 91.568C94.8712 91.568 93.8398 91.2343 93.0512 90.567C92.3232 89.8997 91.7468 88.7167 91.3221 87.018C90.9581 85.3193 90.7155 83.0443 90.5941 80.193C90.4728 77.281 90.4122 73.641 90.4122 69.273ZM72.9402 69.273C72.9402 75.3397 73.3345 80.5267 74.1231 84.834C74.9118 89.0807 76.2162 92.569 78.0362 95.299C79.8562 97.9683 82.2525 99.8793 85.2251 101.032C88.1978 102.185 91.8378 102.761 96.1452 102.761C100.452 102.761 104.092 102.185 107.065 101.032C110.038 99.8793 112.434 97.9683 114.254 95.299C116.074 92.569 117.378 89.0807 118.167 84.834C118.956 80.5267 119.35 75.3397 119.35 69.273C119.35 63.2063 118.956 58.0497 118.167 53.803C117.378 49.4957 116.074 46.0073 114.254 43.338C112.434 40.608 110.038 38.6363 107.065 37.423C104.092 36.149 100.452 35.512 96.1452 35.512C91.8378 35.512 88.1978 36.149 85.2251 37.423C82.2525 38.6363 79.8562 40.608 78.0362 43.338C76.2162 46.0073 74.9118 49.4957 74.1231 53.803C73.3345 58.0497 72.9402 63.2063 72.9402 69.273Z" fill="var(--fill-0, white)"/>
<path d="M124.78 36.786V101.76H141.706V84.561L145.255 79.101L155.174 101.76H174.466L156.084 65.178L172.464 36.786H154.446L141.888 61.72H141.706V36.786H124.78Z" fill="var(--fill-0, white)"/>
<path d="M170.977 36.786L184.718 101.76H206.558L220.572 36.786H202.554L195.729 85.744H195.547L188.722 36.786H170.977Z" fill="var(--fill-0, white)"/>
</g>
<g id="NEWS 104.5">
<path d="M0 0.63V32.76H7.83V12.915H7.92L13.5 32.76H22.68V0.63H14.85V20.43H14.76L9.36 0.63H0Z" fill="var(--fill-0, white)"/>
<path d="M26.6309 0.63V32.76H46.0709V25.92H35.0009V19.53H44.9909V12.96H35.0009V7.47H45.6659V0.63H26.6309Z" fill="var(--fill-0, white)"/>
<path d="M60.8759 0.63L57.8609 22.86H57.7709L55.2509 0.63H47.1509L52.6409 32.76H61.8209L64.6109 11.16H64.7009L67.4909 32.76H76.6709L82.1609 0.63H74.0609L71.8109 22.86H71.7209L68.4359 0.63H60.8759Z" fill="var(--fill-0, white)"/>
<path d="M96.6653 9.9H104.495C104.495 6.45 103.67 3.945 102.02 2.385C100.4 0.795 97.7603 0 94.1003 0C90.5603 0 87.9203 0.855001 86.1803 2.565C84.4403 4.275 83.5703 6.765 83.5703 10.035C83.5703 11.925 83.8853 13.455 84.5153 14.625C85.1753 15.795 85.9853 16.74 86.9453 17.46C87.9353 18.18 89.0003 18.765 90.1403 19.215C91.2803 19.665 92.3303 20.115 93.2903 20.565C94.2803 20.985 95.0903 21.51 95.7203 22.14C96.3803 22.74 96.7103 23.565 96.7103 24.615C96.7103 25.485 96.4703 26.22 95.9903 26.82C95.5403 27.42 94.8803 27.72 94.0103 27.72C93.2003 27.72 92.5403 27.45 92.0303 26.91C91.5203 26.34 91.2653 25.365 91.2653 23.985V23.22H83.1653V24.345C83.1653 26.025 83.4053 27.435 83.8853 28.575C84.3653 29.715 85.0553 30.645 85.9553 31.365C86.8853 32.055 88.0103 32.535 89.3303 32.805C90.6803 33.105 92.2253 33.255 93.9653 33.255C97.6553 33.255 100.475 32.49 102.425 30.96C104.375 29.4 105.35 26.91 105.35 23.49C105.35 21.54 105.005 19.965 104.315 18.765C103.655 17.535 102.815 16.545 101.795 15.795C100.775 15.045 99.6803 14.445 98.5103 13.995C97.3403 13.515 96.2453 13.05 95.2253 12.6C94.2053 12.15 93.3503 11.625 92.6603 11.025C92.0003 10.395 91.6703 9.555 91.6703 8.505C91.6703 7.785 91.8803 7.14 92.3003 6.57C92.7203 5.97 93.3803 5.67 94.2803 5.67C95.0903 5.67 95.6903 6.015 96.0803 6.705C96.4703 7.365 96.6653 8.175 96.6653 9.135V9.9Z" fill="var(--fill-0, white)"/>
<path d="M126.27 32.76H134.64V0.900002H128.61C128.34 1.83 127.995 2.625 127.575 3.285C127.155 3.915 126.615 4.425 125.955 4.815C125.295 5.175 124.5 5.445 123.57 5.625C122.64 5.775 121.53 5.85 120.24 5.85V11.07H126.27V32.76Z" fill="var(--fill-0, white)"/>
<path d="M150.639 22.41V11.88C150.639 9.63 150.834 8.115 151.224 7.335C151.614 6.525 152.244 6.12 153.114 6.12C153.984 6.12 154.614 6.525 155.004 7.335C155.394 8.115 155.589 9.63 155.589 11.88V22.41C155.589 24.66 155.394 26.19 155.004 27C154.614 27.78 153.984 28.17 153.114 28.17C152.244 28.17 151.614 27.78 151.224 27C150.834 26.19 150.639 24.66 150.639 22.41ZM142.269 17.145C142.269 20.385 142.479 23.055 142.899 25.155C143.349 27.225 144.009 28.875 144.879 30.105C145.779 31.305 146.904 32.13 148.254 32.58C149.634 33.03 151.254 33.255 153.114 33.255C154.974 33.255 156.579 33.03 157.929 32.58C159.309 32.13 160.434 31.305 161.304 30.105C162.204 28.875 162.864 27.225 163.284 25.155C163.734 23.055 163.959 20.385 163.959 17.145C163.959 13.935 163.734 11.28 163.284 9.18C162.864 7.08 162.204 5.415 161.304 4.185C160.434 2.955 159.309 2.1 157.929 1.62C156.579 1.14 154.974 0.900002 153.114 0.900002C151.254 0.900002 149.634 1.14 148.254 1.62C146.904 2.1 145.779 2.955 144.879 4.185C144.009 5.415 143.349 7.08 142.899 9.18C142.479 11.28 142.269 13.935 142.269 17.145Z" fill="var(--fill-0, white)"/>
<path d="M165.512 20.52V26.82H176.852V32.76H184.682V26.82H187.472V20.79H184.682V1.53H175.592L165.512 20.52ZM177.122 20.79H171.812L177.032 10.17H177.122V20.79Z" fill="var(--fill-0, white)"/>
<path d="M190.241 23.85V32.76H197.801V23.85H190.241Z" fill="var(--fill-0, white)"/>
<path d="M201.706 1.53L200.986 19.215H208.546C208.546 18.255 208.756 17.565 209.176 17.145C209.596 16.725 210.151 16.515 210.841 16.515C211.621 16.515 212.206 16.875 212.596 17.595C213.016 18.285 213.226 19.53 213.226 21.33C213.226 22.86 213.181 24.075 213.091 24.975C213.001 25.875 212.851 26.565 212.641 27.045C212.431 27.525 212.176 27.84 211.876 27.99C211.606 28.11 211.261 28.17 210.841 28.17C210.121 28.17 209.551 27.9 209.131 27.36C208.741 26.82 208.546 25.8 208.546 24.3V23.22H200.716V24.255C200.716 27.135 201.526 29.355 203.146 30.915C204.796 32.475 207.466 33.255 211.156 33.255C213.136 33.255 214.786 33.015 216.106 32.535C217.456 32.055 218.536 31.305 219.346 30.285C220.156 29.265 220.726 27.99 221.056 26.46C221.416 24.9 221.596 23.07 221.596 20.97C221.596 17.52 220.921 14.97 219.571 13.32C218.221 11.67 216.241 10.845 213.631 10.845C212.431 10.845 211.336 11.055 210.346 11.475C209.386 11.895 208.516 12.465 207.736 13.185L208.096 7.83H220.201V1.53H201.706Z" fill="var(--fill-0, white)"/>
</g>
</g>
</svg>
