<svg preserveAspectRatio="none" width="100%" height="100%" overflow="visible" style="display: block;" viewBox="0 0 237.608 103" fill="none" xmlns="http://www.w3.org/2000/svg">
<g id="ANJ">
<g id="NEWS JAX">
<path d="M0 62.0632V102.379H9.82482V77.4781H9.93775L16.9393 102.379H28.4581V62.0632H18.6333V86.9076H18.5203L11.7446 62.0632H0Z" fill="var(--fill-0, white)"/>
<path d="M33.4155 62.0632V102.379H57.8082V93.7963H43.9179V85.7783H56.453V77.5345H43.9179V70.6458H57.3V62.0632H33.4155Z" fill="var(--fill-0, white)"/>
<path d="M76.385 62.0632L72.6019 89.9567H72.4889L69.3269 62.0632H59.1633L66.052 102.379H77.5707L81.0715 75.2759H81.1845L84.6853 102.379H96.204L103.093 62.0632H92.9291L90.1058 89.9567H89.9929L85.871 62.0632H76.385Z" fill="var(--fill-0, white)"/>
<path d="M121.292 73.6949H131.117C131.117 69.366 130.082 66.2228 128.012 64.2654C125.979 62.2703 122.666 61.2727 118.074 61.2727C113.632 61.2727 110.319 62.3456 108.136 64.4912C105.953 66.6369 104.861 69.7612 104.861 73.8643C104.861 76.2358 105.256 78.1556 106.047 79.6237C106.875 81.0918 107.891 82.2775 109.096 83.181C110.338 84.0844 111.675 84.8184 113.105 85.3831C114.535 85.9477 115.853 86.5124 117.057 87.077C118.3 87.604 119.316 88.2628 120.107 89.0533C120.935 89.8061 121.349 90.8413 121.349 92.1588C121.349 93.2505 121.048 94.1727 120.445 94.9256C119.881 95.6784 119.053 96.0549 117.961 96.0549C116.945 96.0549 116.116 95.7161 115.476 95.0385C114.837 94.3233 114.517 93.0999 114.517 91.3683V90.4084H104.353V91.82C104.353 93.928 104.654 95.6973 105.256 97.1277C105.859 98.5581 106.724 99.7251 107.854 100.628C109.021 101.494 110.432 102.097 112.089 102.435C113.783 102.812 115.721 103 117.904 103C122.535 103 126.073 102.04 128.52 100.12C130.967 98.1629 132.19 95.0385 132.19 90.7472C132.19 88.3004 131.757 86.3242 130.891 84.8184C130.063 83.2751 129.009 82.0329 127.729 81.0918C126.449 80.1507 125.075 79.3978 123.607 78.8332C122.139 78.2309 120.765 77.6474 119.485 77.0828C118.206 76.5182 117.133 75.8594 116.267 75.1065C115.439 74.316 115.025 73.262 115.025 71.9445C115.025 71.0411 115.288 70.2318 115.815 69.5166C116.342 68.7637 117.17 68.3873 118.3 68.3873C119.316 68.3873 120.069 68.8202 120.558 69.686C121.048 70.5141 121.292 71.5305 121.292 72.735V73.6949Z" fill="var(--fill-0, white)"/>
<path d="M173.571 62.0632H163.069V91.2554C163.069 93.1752 162.805 94.455 162.278 95.095C161.789 95.7349 161.149 96.0549 160.359 96.0549C159.568 96.0549 158.909 95.7349 158.382 95.095C157.893 94.455 157.648 93.1752 157.648 91.2554V89.2791H148.162V90.1261C148.162 94.3421 149.103 97.5418 150.986 99.7251C152.868 101.908 156.011 103 160.415 103C164.744 103 168.019 102.021 170.24 100.064C172.461 98.0688 173.571 94.6433 173.571 89.7873V62.0632Z" fill="var(--fill-0, white)"/>
<path d="M190.931 70.3071L188.051 87.4158H193.924L191.044 70.3071H190.931ZM197.594 62.0632L207.419 102.379H196.239L195.166 95.3208H186.809L185.736 102.379H174.726L184.381 62.0632H197.594Z" fill="var(--fill-0, white)"/>
<path d="M206.666 62.0632L215.531 81.9387L206.158 102.379H217.733L221.742 90.239H221.855L225.864 102.379H237.608L228.179 81.9387L236.931 62.0632H225.186L221.855 73.7514H221.742L218.41 62.0632H206.666Z" fill="var(--fill-0, white)"/>
</g>
<g id="ACTION">
<path d="M23.5244 12.8488L19.4288 37.1812H27.7805L23.685 12.8488H23.5244ZM33.0004 1.12427L46.9734 58.4621H31.073L29.5472 48.4239H17.6621L16.1363 58.4621H0.476817L14.209 1.12427H33.0004Z" fill="var(--fill-0, white)"/>
<path d="M72.3228 18.5505V21.7627H86.7778V18.1489C86.7778 15.365 86.4298 12.8756 85.7338 10.6806C85.0914 8.43203 84.0206 6.53148 82.5216 4.97892C81.0761 3.37281 79.1755 2.14147 76.8199 1.28488C74.4643 0.428294 71.6001 0 68.2273 0C64.3726 0 61.1337 0.535368 58.5104 1.6061C55.8871 2.6233 53.7724 4.30971 52.1663 6.66532C50.5602 9.02093 49.4091 12.0993 48.7132 15.9004C48.0707 19.7015 47.7495 24.3324 47.7495 29.7932C47.7495 35.1468 48.0172 39.7242 48.5526 43.5253C49.1415 47.2729 50.1854 50.3513 51.6845 52.7604C53.1835 55.116 55.2714 56.8024 57.9482 57.8196C60.6251 58.8368 64.0514 59.3454 68.2273 59.3454C70.6364 59.3454 72.9653 59.0777 75.2138 58.5424C77.5159 58.0605 79.5503 57.0969 81.317 55.6514C83.0837 54.1524 84.5024 52.118 85.5732 49.5482C86.6439 46.9785 87.1793 43.6859 87.1793 39.6707V35.4145H72.7244C72.7244 38.1449 72.6441 40.4202 72.4835 42.2405C72.3764 44.0072 72.1622 45.4259 71.841 46.4966C71.5198 47.5674 71.0647 48.3436 70.4758 48.8255C69.8869 49.2538 69.1374 49.4679 68.2273 49.4679C67.103 49.4679 66.1929 49.1735 65.4969 48.5845C64.8545 47.9956 64.3459 46.9517 63.9711 45.4527C63.6499 43.9536 63.4358 41.946 63.3287 39.4298C63.2216 36.86 63.1681 33.6478 63.1681 29.7932C63.1681 25.9385 63.2216 22.7531 63.3287 20.2369C63.4358 17.6671 63.6499 15.6327 63.9711 14.1337C64.3459 12.6347 64.8545 11.5907 65.4969 11.0018C66.1929 10.4129 67.103 10.1184 68.2273 10.1184C69.6728 10.1184 70.7168 10.7073 71.3592 11.8851C72.0016 13.063 72.3228 15.2847 72.3228 18.5505Z" fill="var(--fill-0, white)"/>
<path d="M100.117 13.8125V58.4621H115.054V13.8125H126.297V1.12427H89.0351V13.8125H100.117Z" fill="var(--fill-0, white)"/>
<path d="M129.1 1.12427V58.4621H144.037V1.12427H129.1Z" fill="var(--fill-0, white)"/>
<path d="M164.255 29.7932C164.255 25.9385 164.309 22.7531 164.416 20.2369C164.523 17.6671 164.737 15.6327 165.058 14.1337C165.433 12.6347 165.942 11.5907 166.584 11.0018C167.28 10.4129 168.19 10.1184 169.314 10.1184C170.439 10.1184 171.322 10.4129 171.964 11.0018C172.66 11.5907 173.169 12.6347 173.49 14.1337C173.865 15.6327 174.106 17.6671 174.213 20.2369C174.32 22.7531 174.374 25.9385 174.374 29.7932C174.374 33.6478 174.32 36.86 174.213 39.4298C174.106 41.946 173.865 43.9536 173.49 45.4527C173.169 46.9517 172.66 47.9956 171.964 48.5845C171.322 49.1735 170.439 49.4679 169.314 49.4679C168.19 49.4679 167.28 49.1735 166.584 48.5845C165.942 47.9956 165.433 46.9517 165.058 45.4527C164.737 43.9536 164.523 41.946 164.416 39.4298C164.309 36.86 164.255 33.6478 164.255 29.7932ZM148.837 29.7932C148.837 35.1468 149.185 39.7242 149.881 43.5253C150.577 47.2729 151.728 50.3513 153.334 52.7604C154.94 55.116 157.054 56.8024 159.678 57.8196C162.301 58.8368 165.513 59.3454 169.314 59.3454C173.116 59.3454 176.328 58.8368 178.951 57.8196C181.574 56.8024 183.689 55.116 185.295 52.7604C186.901 50.3513 188.052 47.2729 188.748 43.5253C189.444 39.7242 189.792 35.1468 189.792 29.7932C189.792 24.4395 189.444 19.8889 188.748 16.1413C188.052 12.3402 186.901 9.26185 185.295 6.90624C183.689 4.49708 181.574 2.75714 178.951 1.68641C176.328 0.562136 173.116 0 169.314 0C165.513 0 162.301 0.562136 159.678 1.68641C157.054 2.75714 154.94 4.49708 153.334 6.90624C151.728 9.26185 150.577 12.3402 149.881 16.1413C149.185 19.8889 148.837 24.4395 148.837 29.7932Z" fill="var(--fill-0, white)"/>
<path d="M195.146 1.12427V58.4621H209.119V23.0476H209.279L219.237 58.4621H235.619V1.12427H221.646V36.4585H221.486L211.849 1.12427H195.146Z" fill="var(--fill-0, white)"/>
</g>
</g>
</svg>
