<svg preserveAspectRatio="none" width="100%" height="100%" overflow="visible" style="display: block;" viewBox="0 0 50 75" fill="none" xmlns="http://www.w3.org/2000/svg">
<g id="Figma-Icon 1" clip-path="url(#clip0_0_4)">
<g id="Vector">
</g>
<path id="Vector_2" d="M25 37.5C25 30.6668 30.5394 25.1273 37.3727 25.1273C44.2059 25.1273 49.7455 30.6668 49.7455 37.5C49.7455 44.3333 44.2059 49.8727 37.3727 49.8727C30.5394 49.8727 25 44.3333 25 37.5Z" fill="var(--fill-0, #1ABCFE)"/>
<path id="Vector_3" d="M0.254519 62.2455C0.254519 55.4123 5.79398 49.8727 12.6273 49.8727H25V62.2455C25 69.0788 19.4606 74.6182 12.6273 74.6182C5.79398 74.6182 0.254519 69.0788 0.254519 62.2455Z" fill="var(--fill-0, #0ACF83)"/>
<path id="Vector_4" d="M25 0.381851V25.1273H37.3727C44.2061 25.1273 49.7455 19.5878 49.7455 12.7546C49.7455 5.92132 44.2061 0.381851 37.3727 0.381851H25Z" fill="var(--fill-0, #FF7262)"/>
<path id="Vector_5" d="M0.254519 12.7546C0.254519 19.5878 5.79398 25.1273 12.6273 25.1273H25V0.381842H12.6273C5.79398 0.381842 0.254519 5.9213 0.254519 12.7546Z" fill="var(--fill-0, #F24E1E)"/>
<path id="Vector_6" d="M0.254519 37.5C0.254519 44.3333 5.79398 49.8727 12.6273 49.8727H25V25.1273H12.6273C5.79398 25.1273 0.254519 30.6668 0.254519 37.5Z" fill="var(--fill-0, #A259FF)"/>
</g>
<defs>
<clipPath id="clip0_0_4">
<rect width="50" height="75" fill="white"/>
</clipPath>
</defs>
</svg>
