<svg preserveAspectRatio="none" width="100%" height="100%" overflow="visible" style="display: block;" viewBox="0 0 190.127 171.077" fill="none" xmlns="http://www.w3.org/2000/svg">
<g id="Logo">
<path id="Vector" fill-rule="evenodd" clip-rule="evenodd" d="M29.4568 163.086C71.9425 148.356 118.184 148.356 160.67 163.086C174.415 150.039 183.919 133.194 187.955 114.721C191.992 96.2488 190.376 76.9965 183.316 59.4466C176.256 41.8968 164.075 26.8543 148.345 16.2586C132.615 5.66293 114.057 0 95.0633 0C76.0694 0 57.5111 5.66293 41.7811 16.2586C26.0512 26.8543 13.871 41.8968 6.81098 59.4466C-0.249003 76.9965 -1.865 96.2488 2.17135 114.721C6.20771 133.194 15.7113 150.039 29.4568 163.086V163.086Z" fill="var(--fill-0, #C60B1E)"/>
<path id="Toro" fill-rule="evenodd" clip-rule="evenodd" d="M63.7048 153.652C69.8282 152.706 76.1144 152.046 82.5633 151.671C84.3394 149.337 87.2708 141.671 96.2708 140.671C106.226 139.565 111.403 144.186 117.814 152.216C123.183 152.838 128.433 153.656 133.563 154.671C134.719 148.256 136.14 137.902 135.915 131.389C143.43 135.02 149.789 134.522 154.491 131.632C168.326 123.142 166.052 101.1 151.42 93.0445C141.143 87.4187 123.621 90.3978 123.621 90.3978C121.18 85.2068 115.553 86.7155 111.108 87.1119C109.886 87.2624 108.648 87.0276 107.567 86.4404C106.486 85.8532 105.617 84.9432 105.083 83.8387C104.762 84.836 105.083 94.4253 112.483 96.356C119.882 98.2867 123.557 93.5048 123.557 93.5048C134.592 92.0088 141.991 93.3002 147.027 95.6528C158.434 100.972 161.325 119.37 152.23 124.677C147.322 127.553 139.794 124.267 134.168 119.677C129.504 115.842 125.175 111.162 121.257 108.234C110.903 100.422 88.7429 93.3769 85.4799 82.7647C85.4799 82.7647 91.4406 83.8899 96.2708 81.4861C101.101 79.0824 104.043 72.5361 104.043 72.5361L94.0356 61.7193C112.92 58.5356 114.23 44.2283 114.23 44.2283C114.23 44.2283 112.021 47.591 101.281 51.6569C93.9071 54.4825 84.9275 53.562 79.9688 52.7053C73.6227 51.593 74.4448 46.5937 78.0033 44.2283C85.1844 39.4592 110.736 47.1307 113.896 26.8141C107.755 36.4929 93.8942 33.8974 84.3494 34.2171C71.4131 34.6646 59.1576 36.5185 60.4166 54.0095C34.1843 69.4675 43.3181 103.874 55.9589 124.894C60.3219 132.407 62.835 145.018 63.7048 153.652Z" fill="var(--fill-0, #FFBD00)"/>
<path id="Vector_2" d="M10.1615 171.077C10.1615 171.077 51.0515 149.929 95.0247 149.929C138.998 149.929 180.222 171.077 180.222 171.077C180.222 171.077 140.796 153.701 95.0247 153.701C49.253 153.701 10.1615 171.077 10.1615 171.077Z" fill="var(--fill-0, #C60B1E)"/>
</g>
</svg>
