<svg preserveAspectRatio="none" width="100%" height="100%" overflow="visible" style="display: block;" viewBox="0 0 392.859 92.9996" fill="none" xmlns="http://www.w3.org/2000/svg">
<g id="BULLA">
<path id="Vector" d="M0 74.4994H38.1563C41.493 74.6891 44.7843 73.6595 47.412 71.6042C48.5569 70.6154 49.4612 69.3807 50.0567 67.9934C50.6522 66.606 50.9234 65.1022 50.8499 63.5953C50.9196 62.109 50.638 60.6273 50.0278 59.269C49.4176 57.9107 48.4958 56.7138 47.3365 55.7745C44.6128 53.7715 41.2735 52.7744 37.8918 52.9545H0.113331V37.9143H34.7185C38.1569 38.117 41.5673 37.1924 44.4276 35.2823C45.5798 34.4065 46.499 33.2633 47.1049 31.9524C47.7107 30.6415 47.9848 29.2028 47.9032 27.7622C47.9759 26.3339 47.7094 24.9087 47.1252 23.6022C46.541 22.2956 45.6557 21.1445 44.5409 20.2421C41.9525 18.2924 38.7531 17.3198 35.5118 17.4973H0.113331V0.013201H35.6252C41.6708 -0.129893 47.6872 0.891474 53.3433 3.02118C57.8239 4.76283 61.7424 7.68782 64.6769 11.4813C67.1736 15.1822 68.5722 19.5083 68.7125 23.9638C68.8529 28.4194 67.7291 32.8243 65.4702 36.6735C63.0641 40.0306 59.7495 42.6384 55.9122 44.1936C60.5663 46.0333 64.6284 49.1012 67.6613 53.0673C70.4908 56.8984 71.9774 61.5485 71.8925 66.3025C72.0765 69.9562 71.3726 73.6001 69.8402 76.9253C68.3079 80.2505 65.9924 83.1587 63.0902 85.4035C55.8759 90.3174 47.2222 92.6988 38.4963 92.1716H0V74.4994Z" fill="var(--fill-0, #C60B1E)"/>
<path id="Vector_2" d="M99.7353 89.0503C94.6052 86.5481 90.3046 82.6331 87.344 77.7702C84.3279 72.6588 82.7977 66.814 82.9239 60.8876V0.0126953H104.042V61.5644C103.932 63.4397 104.222 65.3169 104.894 67.0726C105.565 68.8282 106.602 70.4226 107.936 71.7509C109.271 73.0792 110.873 74.1113 112.637 74.7793C114.401 75.4474 116.287 75.7363 118.171 75.627C120.034 75.7318 121.899 75.4519 123.648 74.8048C125.396 74.1577 126.992 73.1575 128.334 71.8669C129.623 70.5111 130.623 68.909 131.272 67.1575C131.922 65.4061 132.207 63.5417 132.111 61.6772V0.0126953H153.494V60.85C153.614 66.7707 152.098 72.6106 149.112 77.7326C146.2 82.608 141.919 86.5291 136.796 89.0127C131.008 91.6399 124.721 92.9995 118.36 92.9995C111.999 92.9995 105.712 91.6399 99.9242 89.0127L99.7353 89.0503Z" fill="var(--fill-0, #C60B1E)"/>
<path id="Vector_3" d="M168.605 0.0126953H189.724V74.4989H231.582V91.983H168.605V0.0126953Z" fill="var(--fill-0, #C60B1E)"/>
<path id="Vector_4" d="M241.631 0.0126953H262.75V74.4989H304.608V91.983H241.631V0.0126953Z" fill="var(--fill-0, #C60B1E)"/>
<path id="Vector_5" d="M330.373 91.983H307.706L336.984 0.0126953H363.429L392.859 91.983H370.192L364.789 73.5965H350.094V57.1652H360.029L350.131 23.3249L330.373 91.983Z" fill="var(--fill-0, #C60B1E)"/>
</g>
</svg>
