<svg preserveAspectRatio="none" width="100%" height="100%" overflow="visible" style="display: block;" viewBox="0 0 60.013 53.9994" fill="none" xmlns="http://www.w3.org/2000/svg">
<g id="Goup 2">
<path id="Vector" fill-rule="evenodd" clip-rule="evenodd" d="M9.29796 51.4776C22.7085 46.8282 37.3045 46.8282 50.715 51.4776C55.0537 47.3595 58.0535 42.0423 59.3276 36.2115C60.6017 30.3807 60.0916 24.3037 57.8631 18.7642C55.6347 13.2246 51.79 8.47648 46.8249 5.13199C41.8598 1.78749 36.0018 0 30.0065 0C24.0111 0 18.1532 1.78749 13.1881 5.13199C8.223 8.47648 4.37833 13.2246 2.14987 18.7642C-0.0785973 24.3037 -0.588682 30.3807 0.685383 36.2115C1.95945 42.0423 4.95924 47.3595 9.29796 51.4776V51.4776Z" fill="var(--fill-0, #639208)"/>
<path id="Vector_2" d="M3.20746 53.9994C3.20746 53.9994 16.1143 47.3242 29.9943 47.3242C43.8743 47.3242 56.8866 53.9994 56.8866 53.9994C56.8866 53.9994 44.442 48.5148 29.9943 48.5148C15.5466 48.5148 3.20746 53.9994 3.20746 53.9994Z" fill="var(--fill-0, #639208)"/>
</g>
</svg>
