<svg preserveAspectRatio="none" width="100%" height="100%" overflow="visible" style="display: block;" viewBox="0 0 72 64.786" fill="none" xmlns="http://www.w3.org/2000/svg">
<g id="Goup 2">
<path id="Vector" fill-rule="evenodd" clip-rule="evenodd" d="M11.1551 61.7598C27.2443 56.1817 44.7557 56.1817 60.8449 61.7598C66.0502 56.8191 69.6492 50.4398 71.1777 43.4444C72.7063 36.449 72.0943 29.1582 69.4207 22.5122C66.7471 15.8661 62.1345 10.1696 56.1777 6.15705C50.2208 2.14452 43.1929 0 36 0C28.8071 0 21.7792 2.14452 15.8223 6.15705C9.86546 10.1696 5.25286 15.8661 2.57928 22.5122C-0.0942963 29.1582 -0.706265 36.449 0.822281 43.4444C2.35083 50.4398 5.9498 56.8191 11.1551 61.7598V61.7598Z" fill="var(--fill-0, #C60B1E)"/>
<path id="Vector_2" d="M3.84811 64.786C3.84811 64.786 19.333 56.7775 35.9854 56.7775C52.6378 56.7775 68.2492 64.786 68.2492 64.786C68.2492 64.786 53.3189 58.2058 35.9854 58.2058C18.6519 58.2058 3.84811 64.786 3.84811 64.786Z" fill="var(--fill-0, #C60B1E)"/>
<path id="format_list_bulleted" d="M21.25 36.4807C20.4861 36.4807 19.8371 36.1595 19.303 35.5171C18.7677 34.8761 18.5 34.0973 18.5 33.1807C18.5 32.264 18.7677 31.4852 19.303 30.8443C19.8371 30.2019 20.4861 29.8807 21.25 29.8807C22.0139 29.8807 22.6629 30.2019 23.197 30.8443C23.7323 31.4852 24 32.264 24 33.1807C24 34.0973 23.7323 34.8761 23.197 35.5171C22.6629 36.1595 22.0139 36.4807 21.25 36.4807ZM21.25 23.2807C20.4861 23.2807 19.8371 22.9595 19.303 22.3171C18.7677 21.6761 18.5 20.8973 18.5 19.9807C18.5 19.064 18.7677 18.2852 19.303 17.6443C19.8371 17.0019 20.4861 16.6807 21.25 16.6807C22.0139 16.6807 22.6629 17.0019 23.197 17.6443C23.7323 18.2852 24 19.064 24 19.9807C24 20.8973 23.7323 21.6761 23.197 22.3171C22.6629 22.9595 22.0139 23.2807 21.25 23.2807ZM21.25 49.6807C20.4861 49.6807 19.8371 49.3595 19.303 48.7171C18.7677 48.0761 18.5 47.2973 18.5 46.3807C18.5 45.464 18.7677 44.6852 19.303 44.0443C19.8371 43.4019 20.4861 43.0807 21.25 43.0807C22.0139 43.0807 22.6629 43.4019 23.197 44.0443C23.7323 44.6852 24 45.464 24 46.3807C24 47.2973 23.7323 48.0761 23.197 48.7171C22.6629 49.3595 22.0139 49.6807 21.25 49.6807ZM27.6667 48.5807V44.1807H51.5V48.5807H27.6667ZM27.6667 35.3807V30.9807H51.5V35.3807H27.6667ZM27.6667 22.1807V17.7807H51.5V22.1807H27.6667Z" fill="var(--fill-0, #F9F9F9)"/>
</g>
</svg>
