<svg preserveAspectRatio="none" width="100%" height="100%" overflow="visible" style="display: block;" viewBox="0 0 45 45" fill="none" xmlns="http://www.w3.org/2000/svg">
<g id="language">
<mask id="mask0_0_293" style="mask-type:alpha" maskUnits="userSpaceOnUse" x="0" y="0" width="45" height="45">
<rect id="Bounding box" width="45" height="45" fill="var(--fill-0, #C4C4C4)"/>
</mask>
<g mask="url(#mask0_0_293)">
<path id="language_2" d="M22.5 41.25C19.9375 41.25 17.5156 40.7575 15.2344 39.7725C12.9531 38.7887 10.9613 37.445 9.25875 35.7413C7.555 34.0388 6.21125 32.0469 5.2275 29.7656C4.2425 27.4844 3.75 25.0625 3.75 22.5C3.75 19.9063 4.2425 17.4769 5.2275 15.2119C6.21125 12.9456 7.555 10.9613 9.25875 9.25875C10.9613 7.555 12.9531 6.21062 15.2344 5.22562C17.5156 4.24187 19.9375 3.75 22.5 3.75C25.0937 3.75 27.5231 4.24187 29.7881 5.22562C32.0544 6.21062 34.0388 7.555 35.7413 9.25875C37.445 10.9613 38.7887 12.9456 39.7725 15.2119C40.7575 17.4769 41.25 19.9063 41.25 22.5C41.25 25.0625 40.7575 27.4844 39.7725 29.7656C38.7887 32.0469 37.445 34.0388 35.7413 35.7413C34.0388 37.445 32.0544 38.7887 29.7881 39.7725C27.5231 40.7575 25.0937 41.25 22.5 41.25ZM29.9062 15H35.4375C34.5312 13.4375 33.3981 12.0781 32.0381 10.9219C30.6794 9.76562 29.125 8.90625 27.375 8.34375C27.9375 9.375 28.43 10.445 28.8525 11.5538C29.2737 12.6638 29.625 13.8125 29.9062 15ZM18.9375 15H26.0625C25.6875 13.625 25.2031 12.3281 24.6094 11.1094C24.0156 9.89063 23.3125 8.71875 22.5 7.59375C21.6875 8.71875 20.9844 9.89063 20.3906 11.1094C19.7969 12.3281 19.3125 13.625 18.9375 15ZM7.96875 26.25H14.3438C14.25 25.625 14.1794 25.0075 14.1319 24.3975C14.0856 23.7888 14.0625 23.1562 14.0625 22.5C14.0625 21.8438 14.0856 21.2112 14.1319 20.6025C14.1794 19.9925 14.25 19.375 14.3438 18.75H7.96875C7.8125 19.375 7.695 19.9925 7.61625 20.6025C7.53875 21.2112 7.5 21.8438 7.5 22.5C7.5 23.1562 7.53875 23.7888 7.61625 24.3975C7.695 25.0075 7.8125 25.625 7.96875 26.25ZM17.625 36.6562C17.0625 35.625 16.5706 34.5544 16.1494 33.4444C15.7269 32.3356 15.375 31.1875 15.0938 30H9.5625C10.4687 31.5625 11.6013 32.9219 12.96 34.0781C14.32 35.2344 15.875 36.0937 17.625 36.6562ZM9.5625 15H15.0938C15.375 13.8125 15.7269 12.6638 16.1494 11.5538C16.5706 10.445 17.0625 9.375 17.625 8.34375C15.875 8.90625 14.32 9.76562 12.96 10.9219C11.6013 12.0781 10.4687 13.4375 9.5625 15ZM22.5 37.4063C23.3125 36.2813 24.0156 35.1094 24.6094 33.8906C25.2031 32.6719 25.6875 31.375 26.0625 30H18.9375C19.3125 31.375 19.7969 32.6719 20.3906 33.8906C20.9844 35.1094 21.6875 36.2813 22.5 37.4063ZM18.0937 26.25H26.9063C27 25.625 27.0706 25.0075 27.1181 24.3975C27.1644 23.7888 27.1875 23.1562 27.1875 22.5C27.1875 21.8438 27.1644 21.2112 27.1181 20.6025C27.0706 19.9925 27 19.375 26.9063 18.75H18.0937C18 19.375 17.93 19.9925 17.8838 20.6025C17.8363 21.2112 17.8125 21.8438 17.8125 22.5C17.8125 23.1562 17.8363 23.7888 17.8838 24.3975C17.93 25.0075 18 25.625 18.0937 26.25ZM27.375 36.6562C29.125 36.0937 30.6794 35.2344 32.0381 34.0781C33.3981 32.9219 34.5312 31.5625 35.4375 30H29.9062C29.625 31.1875 29.2737 32.3356 28.8525 33.4444C28.43 34.5544 27.9375 35.625 27.375 36.6562ZM30.6563 26.25H37.0312C37.1875 25.625 37.305 25.0075 37.3837 24.3975C37.4612 23.7888 37.5 23.1562 37.5 22.5C37.5 21.8438 37.4612 21.2112 37.3837 20.6025C37.305 19.9925 37.1875 19.375 37.0312 18.75H30.6563C30.75 19.375 30.82 19.9925 30.8662 20.6025C30.9137 21.2112 30.9375 21.8438 30.9375 22.5C30.9375 23.1562 30.9137 23.7888 30.8662 24.3975C30.82 25.0075 30.75 25.625 30.6563 26.25Z" fill="var(--fill-0, #C60B1E)"/>
</g>
</g>
</svg>
