<svg preserveAspectRatio="none" width="100%" height="100%" overflow="visible" style="display: block;" viewBox="0 0 72 64.7859" fill="none" xmlns="http://www.w3.org/2000/svg">
<g id="Goup 2">
<path id="Vector" fill-rule="evenodd" clip-rule="evenodd" d="M11.1551 61.7598C27.2443 56.1817 44.7557 56.1817 60.8449 61.7598C66.0502 56.8191 69.6492 50.4398 71.1777 43.4444C72.7063 36.449 72.0943 29.1582 69.4207 22.5122C66.7471 15.8661 62.1345 10.1696 56.1777 6.15705C50.2208 2.14452 43.1929 0 36 0C28.8071 0 21.7792 2.14452 15.8223 6.15705C9.86546 10.1696 5.25286 15.8661 2.57928 22.5122C-0.0942963 29.1582 -0.706265 36.449 0.822281 43.4444C2.35083 50.4398 5.9498 56.8191 11.1551 61.7598V61.7598Z" fill="var(--fill-0, #FFBD00)"/>
<path id="Vector_2" d="M3.84814 64.7859C3.84814 64.7859 19.333 56.7773 35.9854 56.7773C52.6378 56.7773 68.2492 64.7859 68.2492 64.7859C68.2492 64.7859 53.3189 58.2057 35.9854 58.2057C18.6519 58.2057 3.84814 64.7859 3.84814 64.7859Z" fill="var(--fill-0, #FFBD00)"/>
</g>
</svg>
