<svg preserveAspectRatio="none" width="100%" height="100%" overflow="visible" style="display: block;" viewBox="0 0 72 64.786" fill="none" xmlns="http://www.w3.org/2000/svg">
<g id="Goup 01">
<path id="Vector" fill-rule="evenodd" clip-rule="evenodd" d="M11.1551 61.7598C27.2443 56.1817 44.7557 56.1817 60.8449 61.7598C66.0502 56.8191 69.6492 50.4398 71.1777 43.4444C72.7063 36.449 72.0943 29.1582 69.4207 22.5122C66.7471 15.8661 62.1345 10.1696 56.1777 6.15705C50.2208 2.14452 43.1929 0 36 0C28.8071 0 21.7792 2.14452 15.8223 6.15705C9.86546 10.1696 5.25286 15.8661 2.57928 22.5122C-0.0942963 29.1582 -0.706265 36.449 0.822281 43.4444C2.35083 50.4398 5.9498 56.8191 11.1551 61.7598V61.7598Z" fill="var(--fill-0, #C60B1E)"/>
<path id="Vector_2" d="M3.84811 64.786C3.84811 64.786 19.333 56.7775 35.9854 56.7775C52.6378 56.7775 68.2492 64.786 68.2492 64.786C68.2492 64.786 53.3189 58.2058 35.9854 58.2058C18.6519 58.2058 3.84811 64.786 3.84811 64.786Z" fill="var(--fill-0, #C60B1E)"/>
<path id="devices" d="M14 49V43.375H18V22.75C18 21.7187 18.392 20.8362 19.176 20.1025C19.9587 19.3675 20.9 19 22 19H52V22.75H22V43.375H34V49H14ZM40 49C39.4333 49 38.9587 48.82 38.576 48.46C38.192 48.1012 38 47.6562 38 47.125V28.375C38 27.8438 38.192 27.3981 38.576 27.0381C38.9587 26.6794 39.4333 26.5 40 26.5H52C52.5667 26.5 53.0413 26.6794 53.424 27.0381C53.808 27.3981 54 27.8438 54 28.375V47.125C54 47.6562 53.808 48.1012 53.424 48.46C53.0413 48.82 52.5667 49 52 49H40ZM42 43.375H50V30.25H42V43.375Z" fill="var(--fill-0, #F9F9F9)"/>
</g>
</svg>
