<svg preserveAspectRatio="none" width="100%" height="100%" overflow="visible" style="display: block;" viewBox="0 0 52.0032 33.4464" fill="none" xmlns="http://www.w3.org/2000/svg">
<g id="Group">
<path id="Vector" d="M47.2756 0.983718C44.6518 0.295116 41.768 0 39.0024 0C34.393 0 29.4291 0.786975 26.0016 2.95116C22.5741 0.786975 17.6102 0 13.0008 0C8.39143 0 3.42748 0.786975 0 2.95116V31.7741C0 32.266 0.590945 32.7578 1.18189 32.7578C1.41827 32.7578 1.53646 32.6594 1.77284 32.6594C4.96394 31.3806 9.57332 30.4953 13.0008 30.4953C17.6102 30.4953 22.5741 31.2822 26.0016 33.4464C29.1927 31.7741 34.984 30.4953 39.0024 30.4953C42.9026 30.4953 46.9211 31.0855 50.2304 32.5611C50.4667 32.6594 50.5849 32.6594 50.8213 32.6594C51.4123 32.6594 52.0032 32.1676 52.0032 31.6757V2.95116C50.5849 2.06581 49.0485 1.47558 47.2756 0.983718ZM47.2756 27.5441C44.6755 26.8555 41.8389 26.5604 39.0024 26.5604C34.984 26.5604 29.1927 27.8392 26.0016 29.5116V6.88603C29.1927 5.21371 34.984 3.93487 39.0024 3.93487C41.8389 3.93487 44.6755 4.22999 47.2756 4.91859V27.5441Z" fill="var(--fill-0, #C60B1E)"/>
<g id="Group_2">
<path id="Vector_2" d="M39.0024 11.7955C41.0825 11.7955 43.0917 11.9725 44.9119 12.307V9.31648C43.0445 9.02137 41.0353 8.8443 39.0024 8.8443C34.984 8.8443 31.3438 9.41486 28.3654 10.4773V13.7432C31.0365 12.4841 34.7476 11.7955 39.0024 11.7955Z" fill="var(--fill-0, #C60B1E)"/>
<path id="Vector_3" d="M28.3654 15.7273V18.9932C31.0365 17.7341 34.7476 17.0455 39.0024 17.0455C41.0825 17.0455 43.0917 17.2225 44.9119 17.557V14.5665C43.0445 14.2714 41.0353 14.0943 39.0024 14.0943C34.984 14.0943 31.3438 14.6845 28.3654 15.7273Z" fill="var(--fill-0, #C60B1E)"/>
<path id="Vector_4" d="M39.0024 19.3443C34.984 19.3443 31.3438 19.9149 28.3654 20.9773V24.2432C31.0365 22.9841 34.7476 22.2955 39.0024 22.2955C41.0825 22.2955 43.0917 22.4725 44.9119 22.807V19.8165C43.0445 19.5017 41.0353 19.3443 39.0024 19.3443Z" fill="var(--fill-0, #C60B1E)"/>
</g>
</g>
</svg>
