<svg preserveAspectRatio="none" width="100%" height="100%" overflow="visible" style="display: block;" viewBox="0 0 72 64.786" fill="none" xmlns="http://www.w3.org/2000/svg">
<g id="Goup 3">
<path id="Vector" fill-rule="evenodd" clip-rule="evenodd" d="M11.1551 61.7598C27.2443 56.1817 44.7557 56.1817 60.8449 61.7598C66.0502 56.8191 69.6492 50.4398 71.1777 43.4444C72.7063 36.449 72.0943 29.1582 69.4207 22.5122C66.7471 15.8661 62.1345 10.1696 56.1777 6.15705C50.2208 2.14452 43.1929 0 36 0C28.8071 0 21.7792 2.14452 15.8223 6.15705C9.86546 10.1696 5.25286 15.8661 2.57928 22.5122C-0.0942963 29.1582 -0.706265 36.449 0.822281 43.4444C2.35083 50.4398 5.9498 56.8191 11.1551 61.7598V61.7598Z" fill="var(--fill-0, #C60B1E)"/>
<path id="Vector_2" d="M3.84811 64.786C3.84811 64.786 19.333 56.7775 35.9854 56.7775C52.6378 56.7775 68.2492 64.786 68.2492 64.786C68.2492 64.786 53.3189 58.2058 35.9854 58.2058C18.6519 58.2058 3.84811 64.786 3.84811 64.786Z" fill="var(--fill-0, #C60B1E)"/>
<path id="star" d="M23.0804 52.0925L27.7304 36.8925L15.4304 28.0925H30.6304L35.4304 12.0925L40.2304 28.0925H55.4304L43.1304 36.8925L47.7804 52.0925L35.4304 42.6925L23.0804 52.0925Z" fill="var(--fill-0, #F9F9F9)"/>
</g>
</svg>
